<svg width="286" height="279" viewBox="0 0 286 279" fill="none" xmlns="http://www.w3.org/2000/svg">
<ellipse opacity="0.2" cx="128" cy="101.678" rx="87" ry="86.2627" stroke="#64AE5F" stroke-width="20"/>
<g filter="url(#filter0_d_163_460)">
<path d="M67 162.573C77.4477 173.01 90.4118 180.609 104.654 184.645C118.896 188.68 133.941 189.016 148.351 185.621C162.761 182.226 176.055 175.213 186.964 165.253C197.872 155.292 206.03 142.717 210.66 128.727C215.289 114.737 216.234 99.8011 213.405 85.3447C210.576 70.8883 204.067 57.3946 194.5 46.1526" stroke="url(#paint0_linear_163_460)" stroke-width="30"/>
</g>
<g filter="url(#filter1_d_163_460)">
<ellipse cx="128" cy="102.669" rx="49" ry="48.5847" fill="white"/>
</g>
<path d="M106.812 88.6667L106.032 90.7367L105.552 95.9867C105.912 95.8267 106.362 95.6767 106.902 95.5367C107.462 95.3767 108.072 95.2967 108.732 95.2967C109.992 95.2967 111.092 95.5367 112.032 96.0167C112.972 96.4767 113.712 97.1467 114.252 98.0267C114.792 98.9067 115.062 99.9567 115.062 101.177C115.062 102.337 114.792 103.377 114.252 104.297C113.732 105.217 112.952 105.957 111.912 106.517C110.892 107.057 109.612 107.327 108.072 107.327C106.912 107.327 105.892 107.197 105.012 106.937C104.152 106.677 103.472 106.347 102.972 105.947C102.492 105.527 102.252 105.097 102.252 104.657C102.252 104.277 102.372 103.947 102.612 103.667C102.852 103.387 103.102 103.187 103.362 103.067C103.822 103.467 104.432 103.857 105.192 104.237C105.952 104.617 106.882 104.807 107.982 104.807C109.262 104.807 110.232 104.467 110.892 103.787C111.572 103.087 111.912 102.227 111.912 101.207C111.912 100.147 111.572 99.3167 110.892 98.7167C110.212 98.0967 109.292 97.7867 108.132 97.7867C107.472 97.7867 106.882 97.8867 106.362 98.0867C105.842 98.2867 105.332 98.5167 104.832 98.7767C104.192 98.7367 103.672 98.5467 103.272 98.2067C102.892 97.8667 102.702 97.3967 102.702 96.7967C102.702 96.6767 102.702 96.5267 102.702 96.3467C102.722 96.1667 102.742 95.9767 102.762 95.7767L103.212 90.4067C103.272 89.8667 103.442 89.4467 103.722 89.1467C104.002 88.8267 104.412 88.6667 104.952 88.6667H106.812ZM105.342 91.2167V88.6667H113.982C114.062 88.7867 114.132 88.9567 114.192 89.1767C114.272 89.3967 114.312 89.6267 114.312 89.8667C114.312 90.3067 114.212 90.6467 114.012 90.8867C113.812 91.1067 113.532 91.2167 113.172 91.2167H105.342ZM129.613 97.7867C129.613 96.1467 129.423 94.8167 129.043 93.7967C128.663 92.7767 128.153 92.0267 127.513 91.5467C126.893 91.0667 126.183 90.8267 125.383 90.8267C124.603 90.8267 123.893 91.0767 123.253 91.5767C122.613 92.0567 122.103 92.8167 121.723 93.8567C121.363 94.8767 121.183 96.1867 121.183 97.7867C121.183 100.047 121.553 101.777 122.293 102.977C123.033 104.177 124.063 104.777 125.383 104.777C126.723 104.777 127.763 104.177 128.503 102.977C129.243 101.777 129.613 100.047 129.613 97.7867ZM125.383 107.327C123.943 107.327 122.663 106.977 121.543 106.277C120.443 105.577 119.583 104.527 118.963 103.127C118.343 101.707 118.033 99.9267 118.033 97.7867C118.033 95.5467 118.373 93.7367 119.053 92.3567C119.733 90.9567 120.633 89.9267 121.753 89.2667C122.873 88.6067 124.083 88.2767 125.383 88.2767C126.703 88.2767 127.923 88.6167 129.043 89.2967C130.163 89.9567 131.063 90.9867 131.743 92.3867C132.423 93.7667 132.763 95.5667 132.763 97.7867C132.763 99.9067 132.443 101.677 131.803 103.097C131.183 104.497 130.323 105.557 129.223 106.277C128.123 106.977 126.843 107.327 125.383 107.327Z" fill="black"/>
<path d="M144.399 92.8067C144.399 94.1467 143.979 95.2167 143.139 96.0167C142.299 96.7967 141.259 97.1867 140.019 97.1867C138.779 97.1867 137.739 96.7967 136.899 96.0167C136.059 95.2167 135.639 94.1467 135.639 92.8067C135.639 91.4667 136.059 90.4067 136.899 89.6267C137.739 88.8267 138.779 88.4267 140.019 88.4267C141.259 88.4267 142.299 88.8267 143.139 89.6267C143.979 90.4067 144.399 91.4667 144.399 92.8067ZM138.159 92.8067C138.159 93.5467 138.329 94.1167 138.669 94.5167C139.029 94.8967 139.479 95.0867 140.019 95.0867C140.579 95.0867 141.029 94.8967 141.369 94.5167C141.729 94.1167 141.909 93.5467 141.909 92.8067C141.909 92.0667 141.729 91.5067 141.369 91.1267C141.029 90.7267 140.579 90.5267 140.019 90.5267C139.479 90.5267 139.029 90.7267 138.669 91.1267C138.329 91.5067 138.159 92.0667 138.159 92.8067ZM139.899 104.567L150.759 88.4267C151.279 88.4867 151.709 88.6167 152.049 88.8167C152.389 89.0167 152.559 89.2767 152.559 89.5967C152.559 89.8167 152.509 90.0467 152.409 90.2867C152.309 90.5067 152.169 90.7467 151.989 91.0067L141.129 107.117C140.609 107.077 140.179 106.947 139.839 106.727C139.499 106.487 139.329 106.217 139.329 105.917C139.329 105.717 139.379 105.507 139.479 105.287C139.579 105.067 139.719 104.827 139.899 104.567ZM156.189 102.737C156.189 104.097 155.769 105.177 154.929 105.977C154.089 106.757 153.049 107.147 151.809 107.147C150.589 107.147 149.549 106.757 148.689 105.977C147.849 105.177 147.429 104.097 147.429 102.737C147.429 101.397 147.849 100.337 148.689 99.5567C149.549 98.7767 150.589 98.3867 151.809 98.3867C153.049 98.3867 154.089 98.7767 154.929 99.5567C155.769 100.337 156.189 101.397 156.189 102.737ZM149.919 102.737C149.919 103.477 150.089 104.047 150.429 104.447C150.789 104.847 151.249 105.047 151.809 105.047C152.349 105.047 152.789 104.847 153.129 104.447C153.489 104.047 153.669 103.477 153.669 102.737C153.669 102.017 153.489 101.467 153.129 101.087C152.789 100.687 152.349 100.487 151.809 100.487C151.249 100.487 150.789 100.687 150.429 101.087C150.089 101.467 149.919 102.017 149.919 102.737ZM113.995 118.177V124.379C113.995 125.116 114.187 125.671 114.569 126.045C114.961 126.418 115.503 126.605 116.193 126.605C116.893 126.605 117.435 126.418 117.817 126.045C118.209 125.671 118.405 125.116 118.405 124.379V118.177H120.001V124.351C120.001 125.144 119.829 125.816 119.483 126.367C119.138 126.917 118.676 127.328 118.097 127.599C117.519 127.869 116.879 128.005 116.179 128.005C115.479 128.005 114.84 127.869 114.261 127.599C113.692 127.328 113.239 126.917 112.903 126.367C112.567 125.816 112.399 125.144 112.399 124.351V118.177H113.995ZM124.879 128.033C124.273 128.033 123.727 127.925 123.241 127.711C122.765 127.487 122.387 127.188 122.107 126.815C121.827 126.432 121.678 126.007 121.659 125.541H123.311C123.339 125.867 123.493 126.143 123.773 126.367C124.063 126.581 124.422 126.689 124.851 126.689C125.299 126.689 125.645 126.605 125.887 126.437C126.139 126.259 126.265 126.035 126.265 125.765C126.265 125.475 126.125 125.261 125.845 125.121C125.575 124.981 125.141 124.827 124.543 124.659C123.965 124.5 123.493 124.346 123.129 124.197C122.765 124.047 122.448 123.819 122.177 123.511C121.916 123.203 121.785 122.797 121.785 122.293C121.785 121.882 121.907 121.509 122.149 121.173C122.392 120.827 122.737 120.557 123.185 120.361C123.643 120.165 124.165 120.067 124.753 120.067C125.631 120.067 126.335 120.291 126.867 120.739C127.409 121.177 127.698 121.779 127.735 122.545H126.139C126.111 122.199 125.971 121.924 125.719 121.719C125.467 121.513 125.127 121.411 124.697 121.411C124.277 121.411 123.955 121.49 123.731 121.649C123.507 121.807 123.395 122.017 123.395 122.279C123.395 122.484 123.47 122.657 123.619 122.797C123.769 122.937 123.951 123.049 124.165 123.133C124.38 123.207 124.697 123.305 125.117 123.427C125.677 123.576 126.135 123.73 126.489 123.889C126.853 124.038 127.166 124.262 127.427 124.561C127.689 124.859 127.824 125.256 127.833 125.751C127.833 126.189 127.712 126.581 127.469 126.927C127.227 127.272 126.881 127.543 126.433 127.739C125.995 127.935 125.477 128.033 124.879 128.033ZM136.628 123.861C136.628 124.15 136.609 124.411 136.572 124.645H130.678C130.724 125.261 130.953 125.755 131.364 126.129C131.774 126.502 132.278 126.689 132.876 126.689C133.734 126.689 134.341 126.329 134.696 125.611H136.418C136.184 126.32 135.76 126.903 135.144 127.361C134.537 127.809 133.781 128.033 132.876 128.033C132.138 128.033 131.476 127.869 130.888 127.543C130.309 127.207 129.852 126.74 129.516 126.143C129.189 125.536 129.026 124.836 129.026 124.043C129.026 123.249 129.184 122.554 129.502 121.957C129.828 121.35 130.281 120.883 130.86 120.557C131.448 120.23 132.12 120.067 132.876 120.067C133.604 120.067 134.252 120.225 134.822 120.543C135.391 120.86 135.834 121.308 136.152 121.887C136.469 122.456 136.628 123.114 136.628 123.861ZM134.962 123.357C134.952 122.769 134.742 122.297 134.332 121.943C133.921 121.588 133.412 121.411 132.806 121.411C132.255 121.411 131.784 121.588 131.392 121.943C131 122.288 130.766 122.759 130.692 123.357H134.962ZM137.666 124.015C137.666 123.24 137.825 122.554 138.142 121.957C138.469 121.359 138.908 120.897 139.458 120.571C140.018 120.235 140.639 120.067 141.32 120.067C141.824 120.067 142.319 120.179 142.804 120.403C143.299 120.617 143.691 120.907 143.98 121.271V117.547H145.59V127.907H143.98V126.745C143.719 127.118 143.355 127.426 142.888 127.669C142.431 127.911 141.904 128.033 141.306 128.033C140.634 128.033 140.018 127.865 139.458 127.529C138.908 127.183 138.469 126.707 138.142 126.101C137.825 125.485 137.666 124.789 137.666 124.015ZM143.98 124.043C143.98 123.511 143.868 123.049 143.644 122.657C143.43 122.265 143.145 121.966 142.79 121.761C142.436 121.555 142.053 121.453 141.642 121.453C141.232 121.453 140.849 121.555 140.494 121.761C140.14 121.957 139.85 122.251 139.626 122.643C139.412 123.025 139.304 123.483 139.304 124.015C139.304 124.547 139.412 125.013 139.626 125.415C139.85 125.816 140.14 126.124 140.494 126.339C140.858 126.544 141.241 126.647 141.642 126.647C142.053 126.647 142.436 126.544 142.79 126.339C143.145 126.133 143.43 125.835 143.644 125.443C143.868 125.041 143.98 124.575 143.98 124.043Z" fill="#BABEC6"/>
<defs>
<filter id="filter0_d_163_460" x="0.678467" y="0.711426" width="285.042" height="277.949" filterUnits="userSpaceOnUse" color-interpolation-filters="sRGB">
<feFlood flood-opacity="0" result="BackgroundImageFix"/>
<feColorMatrix in="SourceAlpha" type="matrix" values="0 0 0 0 0 0 0 0 0 0 0 0 0 0 0 0 0 0 127 0" result="hardAlpha"/>
<feOffset dy="20"/>
<feGaussianBlur stdDeviation="27.86"/>
<feColorMatrix type="matrix" values="0 0 0 0 0.0588235 0 0 0 0 0.0705882 0 0 0 0 0.247059 0 0 0 0.25 0"/>
<feBlend mode="normal" in2="BackgroundImageFix" result="effect1_dropShadow_163_460"/>
<feBlend mode="normal" in="SourceGraphic" in2="effect1_dropShadow_163_460" result="shape"/>
</filter>
<filter id="filter1_d_163_460" x="71" y="46.0847" width="114" height="113.169" filterUnits="userSpaceOnUse" color-interpolation-filters="sRGB">
<feFlood flood-opacity="0" result="BackgroundImageFix"/>
<feColorMatrix in="SourceAlpha" type="matrix" values="0 0 0 0 0 0 0 0 0 0 0 0 0 0 0 0 0 0 127 0" result="hardAlpha"/>
<feMorphology radius="4" operator="dilate" in="SourceAlpha" result="effect1_dropShadow_163_460"/>
<feOffset/>
<feGaussianBlur stdDeviation="2"/>
<feColorMatrix type="matrix" values="0 0 0 0 0.0588235 0 0 0 0 0.0705882 0 0 0 0 0.247059 0 0 0 0.25 0"/>
<feBlend mode="normal" in2="BackgroundImageFix" result="effect1_dropShadow_163_460"/>
<feBlend mode="normal" in="SourceGraphic" in2="effect1_dropShadow_163_460" result="shape"/>
</filter>
<linearGradient id="paint0_linear_163_460" x1="278.662" y1="32.0268" x2="37.2385" y2="-30.5867" gradientUnits="userSpaceOnUse">
<stop stop-color="#00ADEE"/>
<stop offset="1" stop-color="#D6D9FF"/>
</linearGradient>
</defs>
</svg>
