<svg width="194" height="193" xmlns="http://www.w3.org/2000/svg" fill="none">
 <defs>
  <filter color-interpolation-filters="sRGB" filterUnits="userSpaceOnUse" height="277.949" width="285.042" y="0.71143" x="0.67847" id="filter0_d_163_460">
   <feGaussianBlur stdDeviation="27.86"/>
  </filter>
  <filter color-interpolation-filters="sRGB" filterUnits="userSpaceOnUse" height="113.169" width="114" y="46.0847" x="71" id="filter1_d_163_460">
   <feGaussianBlur stdDeviation="2"/>
  </filter>
  <linearGradient y2="-0.54122" x2="-0.20109" y1="-0.09963" x1="1.43015" id="paint0_linear_163_460">
   <stop stop-color="#00ADEE"/>
   <stop stop-color="#D6D9FF" offset="1"/>
  </linearGradient>
 </defs>
 <g>
  <title>Layer 1</title>
  <ellipse id="svg_1" stroke-width="20" stroke="#64AE5F" ry="86.2627" rx="87" cy="96.2627" cx="97" opacity="0.2"/>
  <g id="svg_2" filter="url(#filter0_d_163_460)">
   <path id="svg_3" stroke-width="30" stroke="url(#paint0_linear_163_460)" d="m36,157.1577c10.4477,10.437 23.4118,18.036 37.654,22.072c14.242,4.035 29.287,4.371 43.697,0.976c14.41,-3.395 27.704,-10.408 38.613,-20.368c10.908,-9.961 19.066,-22.536 23.696,-36.526c4.629,-13.99 5.574,-28.9259 2.745,-43.3823c-2.829,-14.4564 -9.338,-27.9501 -18.905,-39.1921"/>
  </g>
  <g id="svg_4" filter="url(#filter1_d_163_460)">
   <ellipse id="svg_5" fill="white" ry="48.5847" rx="49" cy="97.2537" cx="97"/>
  </g>
  <path id="svg_6" fill="black" d="m75.812,83.2514l-0.78,2.07l-0.48,5.25c0.36,-0.16 0.81,-0.31 1.35,-0.45c0.56,-0.16 1.17,-0.24 1.83,-0.24c1.26,0 2.36,0.24 3.3,0.72c0.94,0.46 1.68,1.13 2.22,2.01c0.54,0.88 0.81,1.93 0.81,3.1503c0,1.16 -0.27,2.2 -0.81,3.12c-0.52,0.92 -1.3,1.66 -2.34,2.22c-1.02,0.54 -2.3,0.81 -3.84,0.81c-1.16,0 -2.18,-0.13 -3.06,-0.39c-0.86,-0.26 -1.54,-0.59 -2.04,-0.99c-0.48,-0.42 -0.72,-0.85 -0.72,-1.29c0,-0.38 0.12,-0.71 0.36,-0.99c0.24,-0.28 0.49,-0.48 0.75,-0.6c0.46,0.4 1.07,0.79 1.83,1.17c0.76,0.38 1.69,0.57 2.79,0.57c1.28,0 2.25,-0.34 2.91,-1.02c0.68,-0.7 1.02,-1.56 1.02,-2.58c0,-1.06 -0.34,-1.8903 -1.02,-2.4903c-0.68,-0.62 -1.6,-0.93 -2.76,-0.93c-0.66,0 -1.25,0.1 -1.77,0.3c-0.52,0.2 -1.03,0.43 -1.53,0.69c-0.64,-0.04 -1.16,-0.23 -1.56,-0.57c-0.38,-0.34 -0.57,-0.81 -0.57,-1.41c0,-0.12 0,-0.27 0,-0.45c0.02,-0.18 0.04,-0.37 0.06,-0.57l0.45,-5.37c0.06,-0.54 0.23,-0.96 0.51,-1.26c0.28,-0.32 0.69,-0.48 1.23,-0.48l1.86,0zm-1.47,2.55l0,-2.55l8.64,0c0.08,0.12 0.15,0.29 0.21,0.51c0.08,0.22 0.12,0.45 0.12,0.69c0,0.44 -0.1,0.78 -0.3,1.02c-0.2,0.22 -0.48,0.33 -0.84,0.33l-7.83,0zm24.271,6.57c0,-1.64 -0.19,-2.97 -0.57,-3.99c-0.38,-1.02 -0.89,-1.77 -1.53,-2.25c-0.62,-0.48 -1.33,-0.72 -2.13,-0.72c-0.78,0 -1.49,0.25 -2.13,0.75c-0.64,0.48 -1.15,1.24 -1.53,2.28c-0.36,1.02 -0.54,2.33 -0.54,3.93c0,2.2603 0.37,3.9903 1.11,5.1903c0.74,1.2 1.77,1.8 3.09,1.8c1.34,0 2.38,-0.6 3.12,-1.8c0.74,-1.2 1.11,-2.93 1.11,-5.1903zm-4.23,9.5403c-1.44,0 -2.72,-0.35 -3.84,-1.05c-1.1,-0.7 -1.96,-1.75 -2.58,-3.15c-0.62,-1.42 -0.93,-3.2003 -0.93,-5.3403c0,-2.24 0.34,-4.05 1.02,-5.43c0.68,-1.4 1.58,-2.43 2.7,-3.09c1.12,-0.66 2.33,-0.99 3.63,-0.99c1.32,0 2.54,0.34 3.66,1.02c1.12,0.66 2.02,1.69 2.7,3.09c0.68,1.38 1.02,3.18 1.02,5.4c0,2.12 -0.32,3.8903 -0.96,5.3103c-0.62,1.4 -1.48,2.46 -2.58,3.18c-1.1,0.7 -2.38,1.05 -3.84,1.05z"/>
  <path id="svg_7" fill="#BABEC6" d="m113.399,87.3914c0,1.34 -0.42,2.41 -1.26,3.21c-0.84,0.78 -1.88,1.17 -3.12,1.17c-1.24,0 -2.28,-0.39 -3.12,-1.17c-0.84,-0.8 -1.26,-1.87 -1.26,-3.21c0,-1.34 0.42,-2.4 1.26,-3.18c0.84,-0.8 1.88,-1.2 3.12,-1.2c1.24,0 2.28,0.4 3.12,1.2c0.84,0.78 1.26,1.84 1.26,3.18zm-6.24,0c0,0.74 0.17,1.31 0.51,1.71c0.36,0.38 0.81,0.57 1.35,0.57c0.56,0 1.01,-0.19 1.35,-0.57c0.36,-0.4 0.54,-0.97 0.54,-1.71c0,-0.74 -0.18,-1.3 -0.54,-1.68c-0.34,-0.4 -0.79,-0.6 -1.35,-0.6c-0.54,0 -0.99,0.2 -1.35,0.6c-0.34,0.38 -0.51,0.94 -0.51,1.68zm1.74,11.7603l10.86,-16.1403c0.52,0.06 0.95,0.19 1.29,0.39c0.34,0.2 0.51,0.46 0.51,0.78c0,0.22 -0.05,0.45 -0.15,0.69c-0.1,0.22 -0.24,0.46 -0.42,0.72l-10.86,16.1103c-0.52,-0.04 -0.95,-0.17 -1.29,-0.39c-0.34,-0.24 -0.51,-0.51 -0.51,-0.81c0,-0.2 0.05,-0.41 0.15,-0.63c0.1,-0.22 0.24,-0.46 0.42,-0.72zm16.29,-1.83c0,1.36 -0.42,2.44 -1.26,3.24c-0.84,0.78 -1.88,1.17 -3.12,1.17c-1.22,0 -2.26,-0.39 -3.12,-1.17c-0.84,-0.8 -1.26,-1.88 -1.26,-3.24c0,-1.34 0.42,-2.4 1.26,-3.1803c0.86,-0.78 1.9,-1.17 3.12,-1.17c1.24,0 2.28,0.39 3.12,1.17c0.84,0.7803 1.26,1.8403 1.26,3.1803zm-6.27,0c0,0.74 0.17,1.31 0.51,1.71c0.36,0.4 0.82,0.6 1.38,0.6c0.54,0 0.98,-0.2 1.32,-0.6c0.36,-0.4 0.54,-0.97 0.54,-1.71c0,-0.72 -0.18,-1.27 -0.54,-1.65c-0.34,-0.4 -0.78,-0.6 -1.32,-0.6c-0.56,0 -1.02,0.2 -1.38,0.6c-0.34,0.38 -0.51,0.93 -0.51,1.65zm-35.924,15.44l0,6.202c0,0.737 0.192,1.292 0.574,1.666c0.392,0.373 0.934,0.56 1.624,0.56c0.7,0 1.242,-0.187 1.624,-0.56c0.392,-0.374 0.588,-0.929 0.588,-1.666l0,-6.202l1.596,0l0,6.174c0,0.793 -0.172,1.465 -0.518,2.016c-0.345,0.55 -0.807,0.961 -1.386,1.232c-0.578,0.27 -1.218,0.406 -1.918,0.406c-0.7,0 -1.339,-0.136 -1.918,-0.406c-0.569,-0.271 -1.022,-0.682 -1.358,-1.232c-0.336,-0.551 -0.504,-1.223 -0.504,-2.016l0,-6.174l1.596,0zm10.884,9.856c-0.606,0 -1.152,-0.108 -1.638,-0.322c-0.476,-0.224 -0.854,-0.523 -1.134,-0.896c-0.28,-0.383 -0.429,-0.808 -0.448,-1.274l1.652,0c0.028,0.326 0.182,0.602 0.462,0.826c0.29,0.214 0.649,0.322 1.078,0.322c0.448,0 0.794,-0.084 1.036,-0.252c0.252,-0.178 0.378,-0.402 0.378,-0.672c0,-0.29 -0.14,-0.504 -0.42,-0.644c-0.27,-0.14 -0.704,-0.294 -1.302,-0.462c-0.578,-0.159 -1.05,-0.313 -1.414,-0.462c-0.364,-0.15 -0.681,-0.378 -0.952,-0.686c-0.261,-0.308 -0.392,-0.714 -0.392,-1.218c0,-0.411 0.122,-0.784 0.364,-1.12c0.243,-0.346 0.588,-0.616 1.036,-0.812c0.458,-0.196 0.98,-0.294 1.568,-0.294c0.878,0 1.582,0.224 2.114,0.672c0.542,0.438 0.831,1.04 0.868,1.806l-1.596,0c-0.028,-0.346 -0.168,-0.621 -0.42,-0.826c-0.252,-0.206 -0.592,-0.308 -1.022,-0.308c-0.42,0 -0.742,0.079 -0.966,0.238c-0.224,0.158 -0.336,0.368 -0.336,0.63c0,0.205 0.075,0.378 0.224,0.518c0.15,0.14 0.332,0.252 0.546,0.336c0.215,0.074 0.532,0.172 0.952,0.294c0.56,0.149 1.018,0.303 1.372,0.462c0.364,0.149 0.677,0.373 0.938,0.672c0.262,0.298 0.397,0.695 0.406,1.19c0,0.438 -0.121,0.83 -0.364,1.176c-0.242,0.345 -0.588,0.616 -1.036,0.812c-0.438,0.196 -0.956,0.294 -1.554,0.294zm11.749,-4.172c0,0.289 -0.019,0.55 -0.056,0.784l-5.894,0c0.046,0.616 0.275,1.11 0.686,1.484c0.41,0.373 0.914,0.56 1.512,0.56c0.858,0 1.465,-0.36 1.82,-1.078l1.722,0c-0.234,0.709 -0.658,1.292 -1.274,1.75c-0.607,0.448 -1.363,0.672 -2.268,0.672c-0.738,0 -1.4,-0.164 -1.988,-0.49c-0.579,-0.336 -1.036,-0.803 -1.372,-1.4c-0.327,-0.607 -0.49,-1.307 -0.49,-2.1c0,-0.794 0.158,-1.489 0.476,-2.086c0.326,-0.607 0.779,-1.074 1.358,-1.4c0.588,-0.327 1.26,-0.49 2.016,-0.49c0.728,0 1.376,0.158 1.946,0.476c0.569,0.317 1.012,0.765 1.33,1.344c0.317,0.569 0.476,1.227 0.476,1.974zm-1.666,-0.504c-0.01,-0.588 -0.22,-1.06 -0.63,-1.414c-0.411,-0.355 -0.92,-0.532 -1.526,-0.532c-0.551,0 -1.022,0.177 -1.414,0.532c-0.392,0.345 -0.626,0.816 -0.7,1.414l4.27,0zm2.704,0.658c0,-0.775 0.159,-1.461 0.476,-2.058c0.327,-0.598 0.766,-1.06 1.316,-1.386c0.56,-0.336 1.181,-0.504 1.862,-0.504c0.504,0 0.999,0.112 1.484,0.336c0.495,0.214 0.887,0.504 1.176,0.868l0,-3.724l1.61,0l0,10.36l-1.61,0l0,-1.162c-0.261,0.373 -0.625,0.681 -1.092,0.924c-0.457,0.242 -0.984,0.364 -1.582,0.364c-0.672,0 -1.288,-0.168 -1.848,-0.504c-0.55,-0.346 -0.989,-0.822 -1.316,-1.428c-0.317,-0.616 -0.476,-1.312 -0.476,-2.086zm6.314,0.028c0,-0.532 -0.112,-0.994 -0.336,-1.386c-0.214,-0.392 -0.499,-0.691 -0.854,-0.896c-0.354,-0.206 -0.737,-0.308 -1.148,-0.308c-0.41,0 -0.793,0.102 -1.148,0.308c-0.354,0.196 -0.644,0.49 -0.868,0.882c-0.214,0.382 -0.322,0.84 -0.322,1.372c0,0.532 0.108,0.998 0.322,1.4c0.224,0.401 0.514,0.709 0.868,0.924c0.364,0.205 0.747,0.308 1.148,0.308c0.411,0 0.794,-0.103 1.148,-0.308c0.355,-0.206 0.64,-0.504 0.854,-0.896c0.224,-0.402 0.336,-0.868 0.336,-1.4z"/>
 </g>
</svg>